<svg xmlns="http://www.w3.org/2000/svg" version="1.1" xmlns:xlink="http://www.w3.org/1999/xlink" xmlns:svgjs="http://svgjs.dev/svgjs" width="1500" height="537" viewBox="0 0 1500 537"><g transform="matrix(1,0,0,1,-0.9090909090909918,-1.3012920298049835)"><svg viewBox="0 0 396 142" data-background-color="#ffffff" preserveAspectRatio="xMidYMid meet" height="537" width="1500" xmlns="http://www.w3.org/2000/svg" xmlns:xlink="http://www.w3.org/1999/xlink"><g id="tight-bounds" transform="matrix(1,0,0,1,0.2400000000000091,0.3441032927975982)"><svg viewBox="0 0 395.52 141.31179341440483" height="141.31179341440483" width="395.52"><g><svg viewBox="0 0 395.52 141.31179341440483" height="141.31179341440483" width="395.52"><g><svg viewBox="0 0 395.52 141.31179341440483" height="141.31179341440483" width="395.52"><g transform="matrix(1,0,0,1,0,87.33635747808945)"><svg viewBox="0 0 395.52 53.975435936315385" height="53.975435936315385" width="395.52"><g id="textblocktransform"><svg viewBox="0 0 395.52 53.975435936315385" height="53.975435936315385" width="395.52" id="textblock"><g><svg viewBox="0 0 395.52 53.975435936315385" height="53.975435936315385" width="395.52"><g transform="matrix(1,0,0,1,0,0)"><svg width="395.52" viewBox="3.45 -36 263.78000000000003 36" height="53.975435936315385" data-palette-color="#5c9947"><path d="M13 0L13 0 5.25 0Q4.3 0 3.88-0.43 3.45-0.85 3.45-1.8L3.45-1.8 3.45-34.2Q3.45-35.15 3.88-35.58 4.3-36 5.25-36L5.25-36 13-36Q13.95-36 14.38-35.58 14.8-35.15 14.8-34.2L14.8-34.2 14.8-22.7 16.8-22.7 21.95-34.35Q22.3-35.25 22.9-35.63 23.5-36 24.45-36L24.45-36 32.15-36Q33-36 33.3-35.58 33.6-35.15 33.25-34.35L33.25-34.35 28.15-22.7Q30.95-22.55 32.63-20.73 34.3-18.9 34.3-15.9L34.3-15.9 34.3-1.8Q34.3-0.85 33.88-0.43 33.45 0 32.5 0L32.5 0 24.8 0Q23.85 0 23.43-0.43 23-0.85 23-1.8L23-1.8 23-11.55Q23-12.35 22.6-12.8 22.2-13.25 21.4-13.25L21.4-13.25 14.8-13.25 14.8-1.8Q14.8-0.85 14.38-0.43 13.95 0 13 0ZM65.75 0L65.75 0 42.55 0Q41.6 0 41.17-0.43 40.75-0.85 40.75-1.8L40.75-1.8 40.75-34.2Q40.75-35.15 41.17-35.58 41.6-36 42.55-36L42.55-36 65.75-36Q66.7-36 67.12-35.58 67.55-35.15 67.55-34.2L67.55-34.2 67.55-28.35Q67.55-27.4 67.12-26.98 66.7-26.55 65.75-26.55L65.75-26.55 51.95-26.55 51.95-22.7 61.7-22.7Q62.65-22.7 63.07-22.28 63.5-21.85 63.5-20.9L63.5-20.9 63.5-15.55Q63.5-14.6 63.07-14.18 62.65-13.75 61.7-13.75L61.7-13.75 51.95-13.75 51.95-9.45 65.75-9.45Q66.7-9.45 67.12-9.03 67.55-8.6 67.55-7.65L67.55-7.65 67.55-1.8Q67.55-0.85 67.12-0.43 66.7 0 65.75 0ZM98.45 0L98.45 0 75.25 0Q74.3 0 73.87-0.43 73.45-0.85 73.45-1.8L73.45-1.8 73.45-34.2Q73.45-35.15 73.87-35.58 74.3-36 75.25-36L75.25-36 98.45-36Q99.4-36 99.82-35.58 100.25-35.15 100.25-34.2L100.25-34.2 100.25-28.35Q100.25-27.4 99.82-26.98 99.4-26.55 98.45-26.55L98.45-26.55 84.65-26.55 84.65-22.7 94.4-22.7Q95.34-22.7 95.77-22.28 96.2-21.85 96.2-20.9L96.2-20.9 96.2-15.55Q96.2-14.6 95.77-14.18 95.34-13.75 94.4-13.75L94.4-13.75 84.65-13.75 84.65-9.45 98.45-9.45Q99.4-9.45 99.82-9.03 100.25-8.6 100.25-7.65L100.25-7.65 100.25-1.8Q100.25-0.85 99.82-0.43 99.4 0 98.45 0ZM129.84 0L129.84 0 117.64 0Q111.39 0 108.37-2.5 105.34-5 105.34-10.2L105.34-10.2 105.34-25.75Q105.34-30.95 108.37-33.48 111.39-36 117.64-36L117.64-36 129.84-36Q130.79-36 131.22-35.58 131.64-35.15 131.64-34.2L131.64-34.2 131.64-28.15Q131.64-27.2 131.22-26.78 130.79-26.35 129.84-26.35L129.84-26.35 119.79-26.35Q118.24-26.35 117.49-25.73 116.74-25.1 116.74-23.85L116.74-23.85 116.74-11.95Q116.74-10.7 117.49-10.13 118.24-9.55 119.79-9.55L119.79-9.55 129.84-9.55Q130.79-9.55 131.22-9.13 131.64-8.7 131.64-7.75L131.64-7.75 131.64-1.8Q131.64-0.85 131.22-0.43 130.79 0 129.84 0ZM146.84 0L146.84 0 139.09 0Q138.14 0 137.72-0.43 137.29-0.85 137.29-1.8L137.29-1.8 137.29-34.2Q137.29-35.15 137.72-35.58 138.14-36 139.09-36L139.09-36 146.84-36Q147.79-36 148.22-35.58 148.64-35.15 148.64-34.2L148.64-34.2 148.64-23.35 156.99-23.35 156.99-34.2Q156.99-35.15 157.42-35.58 157.84-36 158.79-36L158.79-36 166.54-36Q167.49-36 167.92-35.58 168.34-35.15 168.34-34.2L168.34-34.2 168.34-1.8Q168.34-0.85 167.92-0.43 167.49 0 166.54 0L166.54 0 158.79 0Q157.84 0 157.42-0.43 156.99-0.85 156.99-1.8L156.99-1.8 156.99-12.9 148.64-12.9 148.64-1.8Q148.64-0.85 148.22-0.43 147.79 0 146.84 0ZM200.24 0L200.24 0 177.04 0Q176.09 0 175.66-0.43 175.24-0.85 175.24-1.8L175.24-1.8 175.24-34.2Q175.24-35.15 175.66-35.58 176.09-36 177.04-36L177.04-36 200.24-36Q201.19-36 201.61-35.58 202.04-35.15 202.04-34.2L202.04-34.2 202.04-28.35Q202.04-27.4 201.61-26.98 201.19-26.55 200.24-26.55L200.24-26.55 186.44-26.55 186.44-22.7 196.19-22.7Q197.14-22.7 197.56-22.28 197.99-21.85 197.99-20.9L197.99-20.9 197.99-15.55Q197.99-14.6 197.56-14.18 197.14-13.75 196.19-13.75L196.19-13.75 186.44-13.75 186.44-9.45 200.24-9.45Q201.19-9.45 201.61-9.03 202.04-8.6 202.04-7.65L202.04-7.65 202.04-1.8Q202.04-0.85 201.61-0.43 201.19 0 200.24 0ZM224.64 0L224.64 0 208.84 0Q207.89 0 207.46-0.43 207.04-0.85 207.04-1.8L207.04-1.8 207.04-7.65Q207.04-8.6 207.46-9.03 207.89-9.45 208.84-9.45L208.84-9.45 222.29-9.45Q222.94-9.45 223.26-9.88 223.59-10.3 223.59-10.9L223.59-10.9Q223.59-11.75 223.26-12.15 222.94-12.55 222.29-12.6L222.29-12.6 214.79-13.65Q211.29-14.15 209.16-15.95 207.04-17.75 207.04-21.95L207.04-21.95 207.04-27.2Q207.04-31.45 209.79-33.73 212.54-36 217.39-36L217.39-36 231.39-36Q232.34-36 232.76-35.58 233.19-35.15 233.19-34.2L233.19-34.2 233.19-28.25Q233.19-27.3 232.76-26.88 232.34-26.45 231.39-26.45L231.39-26.45 219.74-26.45Q219.09-26.45 218.74-26.03 218.39-25.6 218.39-24.95L218.39-24.95Q218.39-24.3 218.74-23.85 219.09-23.4 219.74-23.35L219.74-23.35 227.19-22.35Q230.69-21.85 232.84-20.05 234.99-18.25 234.99-14.05L234.99-14.05 234.99-8.8Q234.99-4.55 232.21-2.27 229.44 0 224.64 0ZM256.88 0L256.88 0 241.08 0Q240.13 0 239.71-0.43 239.28-0.85 239.28-1.8L239.28-1.8 239.28-7.65Q239.28-8.6 239.71-9.03 240.13-9.45 241.08-9.45L241.08-9.45 254.53-9.45Q255.18-9.45 255.51-9.88 255.83-10.3 255.83-10.9L255.83-10.9Q255.83-11.75 255.51-12.15 255.18-12.55 254.53-12.6L254.53-12.6 247.03-13.65Q243.53-14.15 241.41-15.95 239.28-17.75 239.28-21.95L239.28-21.95 239.28-27.2Q239.28-31.45 242.03-33.73 244.78-36 249.63-36L249.63-36 263.63-36Q264.58-36 265.01-35.58 265.43-35.15 265.43-34.2L265.43-34.2 265.43-28.25Q265.43-27.3 265.01-26.88 264.58-26.45 263.63-26.45L263.63-26.45 251.98-26.45Q251.33-26.45 250.98-26.03 250.63-25.6 250.63-24.95L250.63-24.95Q250.63-24.3 250.98-23.85 251.33-23.4 251.98-23.35L251.98-23.35 259.43-22.35Q262.93-21.85 265.08-20.05 267.23-18.25 267.23-14.05L267.23-14.05 267.23-8.8Q267.23-4.55 264.46-2.27 261.68 0 256.88 0Z" opacity="1" transform="matrix(1,0,0,1,0,0)" fill="#5c9947" class="wordmark-text-0" data-fill-palette-color="primary" id="text-0"></path></svg></g></svg></g></svg></g></svg></g><g transform="matrix(1,0,0,1,166.20034197524626,0)"><svg viewBox="0 0 63.11931604950745 74.59405246398786" height="74.59405246398786" width="63.11931604950745"><g><svg xmlns="http://www.w3.org/2000/svg" xmlns:xlink="http://www.w3.org/1999/xlink" version="1.1" x="8" y="0" viewBox="18.5 0.133 62.999000487797005 99.733" enable-background="new 0 0 100 100" xml:space="preserve" height="74.59405246398786" width="47.11931604950745" class="icon-icon-0" data-fill-palette-color="accent" id="icon-0"><g fill="#5c9947" data-fill-palette-color="accent"><path d="M77.393 82.291H74.198A2.168 2.168 0 0 0 74.198 77.955H72.522C72.139 73.923 72.917 70.47 73.661 67.49 74.677 63.425 78.134 53.734 78.743 51.701S83.485 39.504 77.794 24.392 56.854 6.368 56.854 6.368L50.144 0.133 50.11 6.3C45.893 6.91 44.317 7.926 44.317 7.926L45.334 11.789 35.983 14.296 35.373 18.226 19.652 32.795C20.669 36.388 18.5 39.369 18.5 39.369L22.092 43.502C23.042 43.298 24.803 43.908 24.803 43.908 27.919 45.263 32.934 43.908 35.374 41.063 37.812 38.217 40.796 38.895 44.183 40.25 47.572 41.604 54.078 39.978 54.078 39.978S40.659 53.397 36.05 63.425C33.488 69.002 33.525 74.326 34.061 77.955H31.973A2.168 2.168 0 0 0 31.973 82.291H28.777A4.11 4.11 0 0 0 24.668 86.399V95.758A4.11 4.11 0 0 0 28.777 99.866H77.392A4.11 4.11 0 0 0 81.499 95.758V86.399A4.106 4.106 0 0 0 77.393 82.291" fill="#5c9947" data-fill-palette-color="accent"></path></g></svg></g></svg></g><g><rect width="166.20034197524626" height="4.867560515386808" y="68.72649194860105" x="229.31965802475372" fill="#5c9947" data-fill-palette-color="accent"></rect><rect width="166.20034197524626" height="4.867560515386808" y="68.72649194860105" x="0" fill="#5c9947" data-fill-palette-color="accent"></rect><rect width="166.20034197524626" height="4.867560515386808" y="58.99137091782744" x="229.31965802475372" fill="#5c9947" data-fill-palette-color="accent"></rect><rect width="166.20034197524626" height="4.867560515386808" y="58.99137091782744" x="0" fill="#5c9947" data-fill-palette-color="accent"></rect></g></svg></g></svg></g><defs></defs></svg><rect width="395.52" height="141.31179341440483" fill="none" stroke="none" visibility="hidden"></rect></g></svg></g></svg>